<?xml version="1.0" encoding="UTF-8" standalone="no"?>
<!DOCTYPE svg PUBLIC "-//W3C//DTD SVG 1.1//EN"
 "http://www.w3.org/Graphics/SVG/1.1/DTD/svg11.dtd">
<!-- Generated by graphviz version 2.42.3 (20191010.1750)
 -->
<!-- Title: G Pages: 1 -->
<svg width="5547pt" height="2492pt"
 viewBox="0.00 0.00 5547.00 2492.00" xmlns="http://www.w3.org/2000/svg" xmlns:xlink="http://www.w3.org/1999/xlink">
<g id="graph0" class="graph" transform="scale(1 1) rotate(0) translate(4 2488)">
<title>G</title>
<polygon fill="white" stroke="transparent" points="-4,4 -4,-2488 5543,-2488 5543,4 -4,4"/>
<!-- n5 -->
<g id="node1" class="node">
<title>n5</title>
<ellipse fill="none" stroke="green" cx="1988" cy="-738" rx="93.75" ry="18"/>
<text text-anchor="middle" x="1988" y="-733.8" font-family="Times,serif" font-size="14.00">HYN5VCCXX_4.fq.gz</text>
</g>
<!-- n41 -->
<g id="node2" class="node">
<title>n41</title>
<ellipse fill="none" stroke="red" cx="1839" cy="-522" rx="138.14" ry="18"/>
<text text-anchor="middle" x="1839" y="-517.8" font-family="Times,serif" font-size="14.00">HYN5VCCXX_4.trimadap.bx.fq.gz</text>
</g>
<!-- n5&#45;&gt;n41 -->
<g id="edge1" class="edge">
<title>n5&#45;&gt;n41</title>
<path fill="none" stroke="black" d="M1942.17,-722.2C1895.37,-704.34 1825.27,-669.34 1794,-612 1786.34,-597.95 1788.48,-591.02 1794,-576 1797.85,-565.52 1804.78,-555.7 1812.08,-547.43"/>
<polygon fill="black" stroke="black" points="1814.77,-549.67 1819.09,-540 1809.68,-544.87 1814.77,-549.67"/>
</g>
<!-- n43 -->
<g id="node3" class="node">
<title>n43</title>
<ellipse fill="none" stroke="red" cx="2065" cy="-666" rx="127.03" ry="18"/>
<text text-anchor="middle" x="2065" y="-661.8" font-family="Times,serif" font-size="14.00">HYN5VCCXX_4.trimadap.fq.gz</text>
</g>
<!-- n5&#45;&gt;n43 -->
<g id="edge3" class="edge">
<title>n5&#45;&gt;n43</title>
<path fill="none" stroke="black" d="M2006.64,-720.05C2016.31,-711.26 2028.28,-700.38 2038.86,-690.76"/>
<polygon fill="black" stroke="black" points="2041.22,-693.35 2046.27,-684.03 2036.51,-688.17 2041.22,-693.35"/>
</g>
<!-- n42 -->
<g id="node4" class="node">
<title>n42</title>
<ellipse fill="none" stroke="red" cx="2020" cy="-594" rx="217.29" ry="18"/>
<text text-anchor="middle" x="2020" y="-589.8" font-family="Times,serif" font-size="14.00">HYN5VCCXX_4.trimadap_lrbasic/outs/barcoded.fastq.gz</text>
</g>
<!-- n5&#45;&gt;n42 -->
<g id="edge4" class="edge">
<title>n5&#45;&gt;n42</title>
<path fill="none" stroke="black" d="M1961.13,-720.57C1948.89,-711.47 1935.67,-698.96 1929,-684 1922.48,-669.39 1921.03,-661.87 1929,-648 1936.7,-634.61 1949.23,-624.28 1962.56,-616.46"/>
<polygon fill="black" stroke="black" points="1964.27,-619.51 1971.4,-611.67 1960.94,-613.36 1964.27,-619.51"/>
</g>
<!-- n39 -->
<g id="node22" class="node">
<title>n39</title>
<ellipse fill="none" stroke="red" cx="1673" cy="-450" rx="890.68" ry="18"/>
<text text-anchor="middle" x="1673" y="-445.8" font-family="Times,serif" font-size="14.00">Q903_18.porechop.minimap2.c3.miniasm.racon.pglaucamt.minimap2.Q903_18.porechop.paf.m5000.bold.unicycler.minimap2.Q903_18.porechop.paf.m5000.flye.racon.al5ki90.pglaucamt.compact.renumber.HYN5VCCXX_4.trimadap.bx.sortn.bam</text>
</g>
<!-- n5&#45;&gt;n39 -->
<g id="edge40" class="edge">
<title>n5&#45;&gt;n39</title>
<path fill="none" stroke="black" d="M1922.62,-725.01C1889.96,-716.96 1850.93,-704.04 1820,-684 1748.13,-637.44 1730.66,-616.4 1692,-540 1682.22,-520.67 1677.47,-496.52 1675.16,-478.26"/>
<polygon fill="black" stroke="black" points="1678.63,-477.82 1674.06,-468.26 1671.67,-478.59 1678.63,-477.82"/>
</g>
<!-- n37 -->
<g id="node23" class="node">
<title>n37</title>
<ellipse fill="none" stroke="red" cx="2912" cy="-306" rx="917.21" ry="18"/>
<text text-anchor="middle" x="2912" y="-301.8" font-family="Times,serif" font-size="14.00">Q903_18.porechop.minimap2.c3.miniasm.racon.pglaucamt.minimap2.Q903_18.porechop.paf.m5000.bold.unicycler.minimap2.Q903_18.porechop.paf.m5000.flye.racon.al5ki90.pglaucamt.compact.renumber.HYN5VCCXX_4.trimadap.bx.sortn.bam.1.fq.gz</text>
</g>
<!-- n5&#45;&gt;n37 -->
<g id="edge43" class="edge">
<title>n5&#45;&gt;n37</title>
<path fill="none" stroke="black" d="M2073.66,-730.68C2115.29,-724.08 2164.15,-710.76 2201,-684 2231.54,-661.83 2229.64,-646 2246,-612 2268.06,-566.15 2244.38,-535.92 2284,-504 2334.4,-463.4 2510.87,-486.11 2573,-468 2689.02,-434.18 2814.87,-364.85 2875.41,-329.22"/>
<polygon fill="black" stroke="black" points="2877.39,-332.12 2884.21,-324.01 2873.82,-326.1 2877.39,-332.12"/>
</g>
<!-- n38 -->
<g id="node25" class="node">
<title>n38</title>
<ellipse fill="none" stroke="red" cx="1356" cy="-378" rx="910.95" ry="18"/>
<text text-anchor="middle" x="1356" y="-373.8" font-family="Times,serif" font-size="14.00">Q903_18.porechop.minimap2.c3.miniasm.racon.pglaucamt.minimap2.Q903_18.porechop.paf.m5000.bold.unicycler.minimap2.Q903_18.porechop.paf.m5000.flye.racon.al5ki90.pglaucamt.compact.renumber.HYN5VCCXX_4.trimadap.bx.sortn.bam.fq.gz</text>
</g>
<!-- n5&#45;&gt;n38 -->
<g id="edge46" class="edge">
<title>n5&#45;&gt;n38</title>
<path fill="none" stroke="black" d="M1894.74,-736.04C1607.27,-731.85 754,-709.77 754,-595 754,-595 754,-595 754,-521 754,-480.55 742.74,-458.84 773,-432 791.96,-415.18 884.68,-403.42 990.79,-395.33"/>
<polygon fill="black" stroke="black" points="991.05,-398.82 1000.76,-394.59 990.53,-391.84 991.05,-398.82"/>
</g>
<!-- n32 -->
<g id="node29" class="node">
<title>n32</title>
<ellipse fill="none" stroke="red" cx="3131" cy="-162" rx="811.6" ry="18"/>
<text text-anchor="middle" x="3131" y="-157.8" font-family="Times,serif" font-size="14.00">Q903_18.porechop.minimap2.c3.miniasm.racon.pglaucamt.minimap2.Q903_18.porechop.paf.m5000.bold.unicycler.minimap2.Q903_18.porechop.paf.m5000.flye.racon.al5ki90.pglaucamt.compact.renumber.unicycler&#45;polish.fa</text>
</g>
<!-- n5&#45;&gt;n32 -->
<g id="edge51" class="edge">
<title>n5&#45;&gt;n32</title>
<path fill="none" stroke="black" d="M2080.5,-735.15C2467.04,-726.83 3933,-689.06 3933,-595 3933,-595 3933,-595 3933,-305 3933,-264.55 3944.57,-242.49 3914,-216 3891.45,-196.46 3792.65,-184.09 3672.42,-176.26"/>
<polygon fill="black" stroke="black" points="3672.44,-172.76 3662.23,-175.61 3671.99,-179.74 3672.44,-172.76"/>
</g>
<!-- n31 -->
<g id="node30" class="node">
<title>n31</title>
<ellipse fill="none" stroke="red" cx="3551" cy="-90" rx="815.94" ry="18"/>
<text text-anchor="middle" x="3551" y="-85.8" font-family="Times,serif" font-size="14.00">Q903_18.porechop.minimap2.c3.miniasm.racon.pglaucamt.minimap2.Q903_18.porechop.paf.m5000.bold.unicycler.minimap2.Q903_18.porechop.paf.m5000.flye.racon.al5ki90.pglaucamt.compact.renumber.unicycler&#45;polish.gfa</text>
</g>
<!-- n5&#45;&gt;n31 -->
<g id="edge53" class="edge">
<title>n5&#45;&gt;n31</title>
<path fill="none" stroke="black" d="M2081.11,-735.94C2376.57,-732.25 3290.86,-718.3 3585,-684 3759.87,-663.61 3971,-771.06 3971,-595 3971,-595 3971,-595 3971,-233 3971,-192.55 3981.71,-171.45 3952,-144 3934.5,-127.83 3898.09,-116.51 3854.04,-108.6"/>
<polygon fill="black" stroke="black" points="3854.36,-105.1 3843.92,-106.86 3853.18,-112 3854.36,-105.1"/>
</g>
<!-- n33 -->
<g id="node31" class="node">
<title>n33</title>
<ellipse fill="none" stroke="red" cx="3079" cy="-234" rx="825.61" ry="18"/>
<text text-anchor="middle" x="3079" y="-229.8" font-family="Times,serif" font-size="14.00">Q903_18.porechop.minimap2.c3.miniasm.racon.pglaucamt.minimap2.Q903_18.porechop.paf.m5000.bold.unicycler.minimap2.Q903_18.porechop.paf.m5000.flye.racon.al5ki90.pglaucamt.compact.renumber.unicycler&#45;polish.stamp</text>
</g>
<!-- n5&#45;&gt;n33 -->
<g id="edge56" class="edge">
<title>n5&#45;&gt;n33</title>
<path fill="none" stroke="black" d="M2064.57,-727.54C2113.07,-719.77 2176.34,-706.31 2229,-684 2309.02,-650.09 2309.11,-602.1 2392,-576 2468.65,-551.87 3776.16,-591.32 3838,-540 3869.13,-514.17 3857,-491.45 3857,-451 3857,-451 3857,-451 3857,-377 3857,-336.55 3868.54,-314.52 3838,-288 3815.96,-268.86 3718.66,-256.62 3600.69,-248.8"/>
<polygon fill="black" stroke="black" points="3600.9,-245.3 3590.69,-248.15 3600.45,-252.29 3600.9,-245.3"/>
</g>
<!-- n2 -->
<g id="node42" class="node">
<title>n2</title>
<ellipse fill="none" stroke="green" cx="95" cy="-18" rx="27" ry="18"/>
<text text-anchor="middle" x="95" y="-13.8" font-family="Times,serif" font-size="14.00">all</text>
</g>
<!-- n5&#45;&gt;n2 -->
<g id="edge82" class="edge">
<title>n5&#45;&gt;n2</title>
<path fill="none" stroke="black" d="M1895.71,-734.9C1518.52,-725.7 114,-685.39 114,-595 114,-595 114,-595 114,-161 114,-120.64 106.37,-74.39 100.78,-45.94"/>
<polygon fill="black" stroke="black" points="104.17,-45.06 98.75,-35.95 97.31,-46.45 104.17,-45.06"/>
</g>
<!-- n41&#45;&gt;n39 -->
<g id="edge41" class="edge">
<title>n41&#45;&gt;n39</title>
<path fill="none" stroke="black" d="M1800.08,-504.59C1776.97,-494.84 1747.43,-482.39 1722.65,-471.94"/>
<polygon fill="black" stroke="black" points="1723.98,-468.7 1713.41,-468.04 1721.26,-475.15 1723.98,-468.7"/>
</g>
<!-- n43&#45;&gt;n42 -->
<g id="edge5" class="edge">
<title>n43&#45;&gt;n42</title>
<path fill="none" stroke="black" d="M2054.11,-648.05C2048.88,-639.92 2042.5,-630 2036.68,-620.94"/>
<polygon fill="black" stroke="black" points="2039.46,-618.79 2031.11,-612.28 2033.57,-622.58 2039.46,-618.79"/>
</g>
<!-- n42&#45;&gt;n41 -->
<g id="edge2" class="edge">
<title>n42&#45;&gt;n41</title>
<path fill="none" stroke="black" d="M1976.65,-576.23C1950.73,-566.21 1917.66,-553.42 1890.43,-542.89"/>
<polygon fill="black" stroke="black" points="1891.65,-539.61 1881.06,-539.27 1889.13,-546.14 1891.65,-539.61"/>
</g>
<!-- n3 -->
<g id="node5" class="node">
<title>n3</title>
<ellipse fill="none" stroke="green" cx="876" cy="-2466" rx="63.32" ry="18"/>
<text text-anchor="middle" x="876" y="-2461.8" font-family="Times,serif" font-size="14.00">Q903_18.fq.gz</text>
</g>
<!-- n15 -->
<g id="node6" class="node">
<title>n15</title>
<ellipse fill="none" stroke="red" cx="1499" cy="-2394" rx="98.05" ry="18"/>
<text text-anchor="middle" x="1499" y="-2389.8" font-family="Times,serif" font-size="14.00">Q903_18.porechop.fq.gz</text>
</g>
<!-- n3&#45;&gt;n15 -->
<g id="edge6" class="edge">
<title>n3&#45;&gt;n15</title>
<path fill="none" stroke="black" d="M935.51,-2459.75C1030.92,-2451.12 1223.99,-2432.81 1387,-2412 1396.8,-2410.75 1407.07,-2409.33 1417.25,-2407.87"/>
<polygon fill="black" stroke="black" points="1417.98,-2411.3 1427.37,-2406.39 1416.97,-2404.37 1417.98,-2411.3"/>
</g>
<!-- n14 -->
<g id="node10" class="node">
<title>n14</title>
<ellipse fill="none" stroke="red" cx="1075" cy="-2034" rx="190.24" ry="18"/>
<text text-anchor="middle" x="1075" y="-2029.8" font-family="Times,serif" font-size="14.00">Q903_18.porechop.minimap2.c3.miniasm.racon.fa</text>
</g>
<!-- n3&#45;&gt;n14 -->
<g id="edge12" class="edge">
<title>n3&#45;&gt;n14</title>
<path fill="none" stroke="black" d="M876,-2447.95C876,-2421.29 876,-2368.11 876,-2323 876,-2323 876,-2323 876,-2249 876,-2171.67 887.05,-2142.41 942,-2088 957.03,-2073.12 976.75,-2062.28 996.4,-2054.43"/>
<polygon fill="black" stroke="black" points="997.89,-2057.61 1006.02,-2050.82 995.42,-2051.06 997.89,-2057.61"/>
</g>
<!-- n13 -->
<g id="node11" class="node">
<title>n13</title>
<ellipse fill="none" stroke="red" cx="1040" cy="-1962" rx="194.58" ry="18"/>
<text text-anchor="middle" x="1040" y="-1957.8" font-family="Times,serif" font-size="14.00">Q903_18.porechop.minimap2.c3.miniasm.racon.gfa</text>
</g>
<!-- n3&#45;&gt;n13 -->
<g id="edge16" class="edge">
<title>n3&#45;&gt;n13</title>
<path fill="none" stroke="black" d="M864.19,-2447.96C847.49,-2422.16 819,-2371.08 819,-2323 819,-2323 819,-2323 819,-2105 819,-2059.85 832.98,-2044.51 868,-2016 887.79,-1999.89 912.45,-1988.67 936.87,-1980.85"/>
<polygon fill="black" stroke="black" points="938.01,-1984.16 946.57,-1977.91 935.99,-1977.46 938.01,-1984.16"/>
</g>
<!-- n11 -->
<g id="node12" class="node">
<title>n11</title>
<ellipse fill="none" stroke="red" cx="1114" cy="-1818" rx="229.33" ry="18"/>
<text text-anchor="middle" x="1114" y="-1813.8" font-family="Times,serif" font-size="14.00">Q903_18.porechop.minimap2.c3.miniasm.racon.pglaucamt.fa</text>
</g>
<!-- n3&#45;&gt;n11 -->
<g id="edge19" class="edge">
<title>n3&#45;&gt;n11</title>
<path fill="none" stroke="black" d="M931.61,-2457.43C1047.6,-2440.68 1310.18,-2397.33 1378,-2340 1490.93,-2244.53 1511,-2182.88 1511,-2035 1511,-2035 1511,-2035 1511,-1961 1511,-1899.61 1340.56,-1857.7 1223.04,-1836.11"/>
<polygon fill="black" stroke="black" points="1223.36,-1832.61 1212.9,-1834.27 1222.12,-1839.5 1223.36,-1832.61"/>
</g>
<!-- n12 -->
<g id="node13" class="node">
<title>n12</title>
<ellipse fill="none" stroke="red" cx="1111" cy="-1890" rx="233.67" ry="18"/>
<text text-anchor="middle" x="1111" y="-1885.8" font-family="Times,serif" font-size="14.00">Q903_18.porechop.minimap2.c3.miniasm.racon.pglaucamt.gfa</text>
</g>
<!-- n3&#45;&gt;n12 -->
<g id="edge22" class="edge">
<title>n3&#45;&gt;n12</title>
<path fill="none" stroke="black" d="M855.39,-2448.6C827.45,-2424.36 781,-2376.09 781,-2323 781,-2323 781,-2323 781,-2033 781,-1957.19 855.4,-1921.36 933.54,-1904.63"/>
<polygon fill="black" stroke="black" points="934.48,-1908.01 943.58,-1902.59 933.09,-1901.15 934.48,-1908.01"/>
</g>
<!-- n10 -->
<g id="node14" class="node">
<title>n10</title>
<ellipse fill="none" stroke="red" cx="1116" cy="-1746" rx="352.92" ry="18"/>
<text text-anchor="middle" x="1116" y="-1741.8" font-family="Times,serif" font-size="14.00">Q903_18.porechop.minimap2.c3.miniasm.racon.pglaucamt.minimap2.Q903_18.porechop.paf.gz</text>
</g>
<!-- n3&#45;&gt;n10 -->
<g id="edge25" class="edge">
<title>n3&#45;&gt;n10</title>
<path fill="none" stroke="black" d="M846.15,-2450.04C806.94,-2428.04 743,-2382.96 743,-2323 743,-2323 743,-2323 743,-2033 743,-1973.38 827.99,-1835.35 876,-1800 897.5,-1784.17 922.82,-1772.91 948.82,-1764.94"/>
<polygon fill="black" stroke="black" points="949.8,-1768.3 958.42,-1762.14 947.84,-1761.57 949.8,-1768.3"/>
</g>
<!-- n6 -->
<g id="node16" class="node">
<title>n6</title>
<ellipse fill="none" stroke="red" cx="501" cy="-1458" rx="434.98" ry="18"/>
<text text-anchor="middle" x="501" y="-1453.8" font-family="Times,serif" font-size="14.00">Q903_18.porechop.minimap2.c3.miniasm.racon.pglaucamt.minimap2.Q903_18.porechop.paf.m5000.bold.unicycler.gfa</text>
</g>
<!-- n3&#45;&gt;n6 -->
<g id="edge30" class="edge">
<title>n3&#45;&gt;n6</title>
<path fill="none" stroke="black" d="M815.54,-2460.66C629.17,-2446.48 76,-2398.07 76,-2323 76,-2323 76,-2323 76,-1601 76,-1538.09 245.66,-1497.99 370.59,-1476.99"/>
<polygon fill="black" stroke="black" points="371.34,-1480.41 380.63,-1475.32 370.2,-1473.5 371.34,-1480.41"/>
</g>
<!-- n7 -->
<g id="node38" class="node">
<title>n7</title>
<ellipse fill="none" stroke="red" cx="1137" cy="-1530" rx="444.65" ry="18"/>
<text text-anchor="middle" x="1137" y="-1525.8" font-family="Times,serif" font-size="14.00">Q903_18.porechop.minimap2.c3.miniasm.racon.pglaucamt.minimap2.Q903_18.porechop.paf.m5000.bold.unicycler.stamp</text>
</g>
<!-- n3&#45;&gt;n7 -->
<g id="edge71" class="edge">
<title>n3&#45;&gt;n7</title>
<path fill="none" stroke="black" d="M938.69,-2463.45C1117.32,-2458.66 1620.44,-2442.6 1688,-2412 1738.96,-2388.92 1777,-2378.94 1777,-2323 1777,-2323 1777,-2323 1777,-1673 1777,-1596.35 1599.83,-1561.05 1431.93,-1544.8"/>
<polygon fill="black" stroke="black" points="1432.19,-1541.31 1421.91,-1543.86 1431.53,-1548.28 1432.19,-1541.31"/>
</g>
<!-- n8 -->
<g id="node39" class="node">
<title>n8</title>
<ellipse fill="none" stroke="red" cx="1137" cy="-1602" rx="389.13" ry="18"/>
<text text-anchor="middle" x="1137" y="-1597.8" font-family="Times,serif" font-size="14.00">Q903_18.porechop.minimap2.c3.miniasm.racon.pglaucamt.minimap2.Q903_18.porechop.paf.m5000.fq.gz</text>
</g>
<!-- n3&#45;&gt;n8 -->
<g id="edge74" class="edge">
<title>n3&#45;&gt;n8</title>
<path fill="none" stroke="black" d="M939.35,-2465.47C1097.51,-2465.87 1505.98,-2461.88 1631,-2412 1688.77,-2388.95 1739,-2385.2 1739,-2323 1739,-2323 1739,-2323 1739,-1745 1739,-1668.88 1554.35,-1633.52 1389.58,-1617.12"/>
<polygon fill="black" stroke="black" points="1389.55,-1613.6 1379.25,-1616.11 1388.87,-1620.56 1389.55,-1613.6"/>
</g>
<!-- n9 -->
<g id="node40" class="node">
<title>n9</title>
<ellipse fill="none" stroke="red" cx="1130" cy="-1674" rx="378.03" ry="18"/>
<text text-anchor="middle" x="1130" y="-1669.8" font-family="Times,serif" font-size="14.00">Q903_18.porechop.minimap2.c3.miniasm.racon.pglaucamt.minimap2.Q903_18.porechop.paf.m5000.id</text>
</g>
<!-- n3&#45;&gt;n9 -->
<g id="edge78" class="edge">
<title>n3&#45;&gt;n9</title>
<path fill="none" stroke="black" d="M939.02,-2464.68C1107.02,-2463.23 1556.26,-2455.32 1606,-2412 1636.5,-2385.44 1625,-2363.45 1625,-2323 1625,-2323 1625,-2323 1625,-1889 1625,-1765.7 1494,-1712.63 1366.79,-1690.16"/>
<polygon fill="black" stroke="black" points="1367.3,-1686.69 1356.86,-1688.46 1366.12,-1693.59 1367.3,-1686.69"/>
</g>
<!-- n3&#45;&gt;n2 -->
<g id="edge83" class="edge">
<title>n3&#45;&gt;n2</title>
<path fill="none" stroke="black" d="M813.36,-2463.49C664.23,-2459.38 291.69,-2445.94 172,-2412 89.19,-2388.52 0,-2409.07 0,-2323 0,-2323 0,-2323 0,-161 0,-110.52 41.99,-64.39 70.14,-39.15"/>
<polygon fill="black" stroke="black" points="72.77,-41.5 78.02,-32.3 68.17,-36.22 72.77,-41.5"/>
</g>
<!-- n18 -->
<g id="node8" class="node">
<title>n18</title>
<ellipse fill="none" stroke="red" cx="1094" cy="-2250" rx="172.88" ry="18"/>
<text text-anchor="middle" x="1094" y="-2245.8" font-family="Times,serif" font-size="14.00">Q903_18.porechop.minimap2.c3.miniasm.gfa</text>
</g>
<!-- n15&#45;&gt;n18 -->
<g id="edge8" class="edge">
<title>n15&#45;&gt;n18</title>
<path fill="none" stroke="black" d="M1406.57,-2387.7C1289.76,-2380.04 1101.24,-2364.1 1080,-2340 1065.05,-2323.04 1071.45,-2296.85 1079.85,-2277.26"/>
<polygon fill="black" stroke="black" points="1083.13,-2278.52 1084.19,-2267.98 1076.79,-2275.56 1083.13,-2278.52"/>
</g>
<!-- n16 -->
<g id="node9" class="node">
<title>n16</title>
<ellipse fill="none" stroke="red" cx="1203" cy="-2106" rx="242.38" ry="18"/>
<text text-anchor="middle" x="1203" y="-2101.8" font-family="Times,serif" font-size="14.00">Q903_18.porechop.minimap2.c3.miniasm.minimap2.reads.paf.gz</text>
</g>
<!-- n15&#45;&gt;n16 -->
<g id="edge10" class="edge">
<title>n15&#45;&gt;n16</title>
<path fill="none" stroke="black" d="M1486.42,-2375.98C1455.81,-2335.3 1373.71,-2230.6 1289,-2160 1275.28,-2148.56 1258.86,-2137.84 1244.06,-2129.07"/>
<polygon fill="black" stroke="black" points="1245.51,-2125.86 1235.1,-2123.87 1242,-2131.91 1245.51,-2125.86"/>
</g>
<!-- n15&#45;&gt;n14 -->
<g id="edge13" class="edge">
<title>n15&#45;&gt;n14</title>
<path fill="none" stroke="black" d="M1493.74,-2375.7C1486.14,-2349.14 1473,-2296.61 1473,-2251 1473,-2251 1473,-2251 1473,-2177 1473,-2136.55 1483.6,-2115.56 1454,-2088 1425.44,-2061.41 1343.28,-2048.06 1262.73,-2041.4"/>
<polygon fill="black" stroke="black" points="1262.65,-2037.89 1252.41,-2040.58 1262.1,-2044.86 1262.65,-2037.89"/>
</g>
<!-- n15&#45;&gt;n10 -->
<g id="edge26" class="edge">
<title>n15&#45;&gt;n10</title>
<path fill="none" stroke="black" d="M1509.36,-2375.76C1524.01,-2349.7 1549,-2298.31 1549,-2251 1549,-2251 1549,-2251 1549,-1889 1549,-1825.02 1376.15,-1785.2 1248.87,-1764.55"/>
<polygon fill="black" stroke="black" points="1249.06,-1761.04 1238.63,-1762.92 1247.96,-1767.95 1249.06,-1761.04"/>
</g>
<!-- n25 -->
<g id="node17" class="node">
<title>n25</title>
<ellipse fill="none" stroke="red" cx="1714" cy="-1386" rx="553.73" ry="18"/>
<text text-anchor="middle" x="1714" y="-1381.8" font-family="Times,serif" font-size="14.00">Q903_18.porechop.minimap2.c3.miniasm.racon.pglaucamt.minimap2.Q903_18.porechop.paf.m5000.bold.unicycler.minimap2.Q903_18.porechop.paf.gz</text>
</g>
<!-- n15&#45;&gt;n25 -->
<g id="edge33" class="edge">
<title>n15&#45;&gt;n25</title>
<path fill="none" stroke="black" d="M1585.24,-2385.15C1617.88,-2378.02 1652.92,-2364.71 1677,-2340 1705.59,-2310.66 1701,-2291.97 1701,-2251 1701,-2251 1701,-2251 1701,-1745 1701,-1563.96 2085.36,-1580.35 1971,-1440 1958.21,-1424.3 1923.29,-1413.11 1883.17,-1405.19"/>
<polygon fill="black" stroke="black" points="1883.63,-1401.72 1873.15,-1403.3 1882.33,-1408.6 1883.63,-1401.72"/>
</g>
<!-- n23 -->
<g id="node36" class="node">
<title>n23</title>
<ellipse fill="none" stroke="red" cx="1714" cy="-1242" rx="590.44" ry="18"/>
<text text-anchor="middle" x="1714" y="-1237.8" font-family="Times,serif" font-size="14.00">Q903_18.porechop.minimap2.c3.miniasm.racon.pglaucamt.minimap2.Q903_18.porechop.paf.m5000.bold.unicycler.minimap2.Q903_18.porechop.paf.m5000.fq.gz</text>
</g>
<!-- n15&#45;&gt;n23 -->
<g id="edge68" class="edge">
<title>n15&#45;&gt;n23</title>
<path fill="none" stroke="black" d="M1541.23,-2377.73C1589.83,-2357.12 1663,-2315.4 1663,-2251 1663,-2251 1663,-2251 1663,-1889 1663,-1718.42 1718.46,-1625.37 1591,-1512 1507.76,-1437.96 1166.89,-1557.55 1091,-1476 1080.1,-1464.29 1089.1,-1455.89 1091,-1440 1098.83,-1374.6 1076.1,-1338.99 1126,-1296 1146.92,-1277.98 1254.36,-1265.74 1371.81,-1257.61"/>
<polygon fill="black" stroke="black" points="1372.36,-1261.08 1382.1,-1256.91 1371.89,-1254.1 1372.36,-1261.08"/>
</g>
<!-- n15&#45;&gt;n8 -->
<g id="edge75" class="edge">
<title>n15&#45;&gt;n8</title>
<path fill="none" stroke="black" d="M1518.09,-2376.28C1543.98,-2351.66 1587,-2302.92 1587,-2251 1587,-2251 1587,-2251 1587,-1745 1587,-1694.68 1560.64,-1681.07 1517,-1656 1486.9,-1638.71 1418.33,-1626.71 1347.59,-1618.56"/>
<polygon fill="black" stroke="black" points="1347.93,-1615.08 1337.6,-1617.44 1347.15,-1622.04 1347.93,-1615.08"/>
</g>
<!-- n19 -->
<g id="node41" class="node">
<title>n19</title>
<ellipse fill="none" stroke="red" cx="1229" cy="-2322" rx="140.04" ry="18"/>
<text text-anchor="middle" x="1229" y="-2317.8" font-family="Times,serif" font-size="14.00">Q903_18.porechop.minimap2.paf.gz</text>
</g>
<!-- n15&#45;&gt;n19 -->
<g id="edge81" class="edge">
<title>n15&#45;&gt;n19</title>
<path fill="none" stroke="black" d="M1444.69,-2378.92C1402.51,-2367.98 1343.73,-2352.74 1298.18,-2340.94"/>
<polygon fill="black" stroke="black" points="1298.94,-2337.52 1288.38,-2338.4 1297.19,-2344.29 1298.94,-2337.52"/>
</g>
<!-- n17 -->
<g id="node7" class="node">
<title>n17</title>
<ellipse fill="none" stroke="red" cx="1111" cy="-2178" rx="168.54" ry="18"/>
<text text-anchor="middle" x="1111" y="-2173.8" font-family="Times,serif" font-size="14.00">Q903_18.porechop.minimap2.c3.miniasm.fa</text>
</g>
<!-- n17&#45;&gt;n16 -->
<g id="edge11" class="edge">
<title>n17&#45;&gt;n16</title>
<path fill="none" stroke="black" d="M1133.27,-2160.05C1145.05,-2151.09 1159.69,-2139.96 1172.5,-2130.2"/>
<polygon fill="black" stroke="black" points="1174.78,-2132.87 1180.62,-2124.03 1170.54,-2127.3 1174.78,-2132.87"/>
</g>
<!-- n17&#45;&gt;n14 -->
<g id="edge14" class="edge">
<title>n17&#45;&gt;n14</title>
<path fill="none" stroke="black" d="M1009.41,-2163.51C987.02,-2155.6 965.87,-2143.24 952,-2124 942.64,-2111.02 943.21,-2101.37 952,-2088 961.72,-2073.22 976.53,-2062.55 992.54,-2054.84"/>
<polygon fill="black" stroke="black" points="994.33,-2057.88 1002.07,-2050.64 991.51,-2051.47 994.33,-2057.88"/>
</g>
<!-- n18&#45;&gt;n17 -->
<g id="edge7" class="edge">
<title>n18&#45;&gt;n17</title>
<path fill="none" stroke="black" d="M1098.2,-2231.7C1100.1,-2223.9 1102.38,-2214.51 1104.48,-2205.83"/>
<polygon fill="black" stroke="black" points="1107.89,-2206.65 1106.85,-2196.1 1101.08,-2205 1107.89,-2206.65"/>
</g>
<!-- n18&#45;&gt;n13 -->
<g id="edge17" class="edge">
<title>n18&#45;&gt;n13</title>
<path fill="none" stroke="black" d="M1004.69,-2234.48C979.03,-2226.64 952.7,-2214.57 933,-2196 882.92,-2148.78 888.89,-2119.61 876,-2052 873,-2036.28 866.59,-2028.94 876,-2016 887.62,-2000.03 904.15,-1988.78 922.28,-1980.86"/>
<polygon fill="black" stroke="black" points="923.91,-1983.98 931.89,-1977.02 921.31,-1977.48 923.91,-1983.98"/>
</g>
<!-- n16&#45;&gt;n14 -->
<g id="edge15" class="edge">
<title>n16&#45;&gt;n14</title>
<path fill="none" stroke="black" d="M1172.01,-2088.05C1154.72,-2078.6 1133,-2066.72 1114.49,-2056.6"/>
<polygon fill="black" stroke="black" points="1116.15,-2053.52 1105.7,-2051.79 1112.79,-2059.66 1116.15,-2053.52"/>
</g>
<!-- n14&#45;&gt;n13 -->
<g id="edge18" class="edge">
<title>n14&#45;&gt;n13</title>
<path fill="none" stroke="black" d="M1066.35,-2015.7C1062.36,-2007.73 1057.55,-1998.1 1053.13,-1989.26"/>
<polygon fill="black" stroke="black" points="1056.15,-1987.48 1048.55,-1980.1 1049.89,-1990.61 1056.15,-1987.48"/>
</g>
<!-- n13&#45;&gt;n12 -->
<g id="edge23" class="edge">
<title>n13&#45;&gt;n12</title>
<path fill="none" stroke="black" d="M1057.19,-1944.05C1065.87,-1935.5 1076.56,-1924.96 1086.11,-1915.54"/>
<polygon fill="black" stroke="black" points="1088.81,-1917.79 1093.48,-1908.28 1083.9,-1912.8 1088.81,-1917.79"/>
</g>
<!-- n11&#45;&gt;n10 -->
<g id="edge27" class="edge">
<title>n11&#45;&gt;n10</title>
<path fill="none" stroke="black" d="M1114.49,-1799.7C1114.71,-1791.98 1114.98,-1782.71 1115.23,-1774.11"/>
<polygon fill="black" stroke="black" points="1118.72,-1774.2 1115.51,-1764.1 1111.73,-1774 1118.72,-1774.2"/>
</g>
<!-- n12&#45;&gt;n11 -->
<g id="edge20" class="edge">
<title>n12&#45;&gt;n11</title>
<path fill="none" stroke="black" d="M1111.74,-1871.7C1112.07,-1863.98 1112.47,-1854.71 1112.84,-1846.11"/>
<polygon fill="black" stroke="black" points="1116.34,-1846.25 1113.27,-1836.1 1109.34,-1845.95 1116.34,-1846.25"/>
</g>
<!-- n10&#45;&gt;n9 -->
<g id="edge79" class="edge">
<title>n10&#45;&gt;n9</title>
<path fill="none" stroke="black" d="M1119.46,-1727.7C1121,-1719.98 1122.86,-1710.71 1124.58,-1702.11"/>
<polygon fill="black" stroke="black" points="1128.05,-1702.6 1126.58,-1692.1 1121.19,-1701.22 1128.05,-1702.6"/>
</g>
<!-- n26 -->
<g id="node15" class="node">
<title>n26</title>
<ellipse fill="none" stroke="red" cx="1531" cy="-1458" rx="430.64" ry="18"/>
<text text-anchor="middle" x="1531" y="-1453.8" font-family="Times,serif" font-size="14.00">Q903_18.porechop.minimap2.c3.miniasm.racon.pglaucamt.minimap2.Q903_18.porechop.paf.m5000.bold.unicycler.fa</text>
</g>
<!-- n26&#45;&gt;n25 -->
<g id="edge34" class="edge">
<title>n26&#45;&gt;n25</title>
<path fill="none" stroke="black" d="M1575.3,-1440.05C1600.74,-1430.33 1632.87,-1418.03 1659.81,-1407.73"/>
<polygon fill="black" stroke="black" points="1661.38,-1410.87 1669.47,-1404.03 1658.88,-1404.34 1661.38,-1410.87"/>
</g>
<!-- n6&#45;&gt;n2 -->
<g id="edge84" class="edge">
<title>n6&#45;&gt;n2</title>
<path fill="none" stroke="black" d="M380.63,-1440.68C254.97,-1420.17 76,-1379.62 76,-1315 76,-1315 76,-1315 76,-161 76,-120.64 83.63,-74.39 89.22,-45.94"/>
<polygon fill="black" stroke="black" points="92.69,-46.45 91.25,-35.95 85.83,-45.06 92.69,-46.45"/>
</g>
<!-- n24 -->
<g id="node37" class="node">
<title>n24</title>
<ellipse fill="none" stroke="red" cx="1714" cy="-1314" rx="579.34" ry="18"/>
<text text-anchor="middle" x="1714" y="-1309.8" font-family="Times,serif" font-size="14.00">Q903_18.porechop.minimap2.c3.miniasm.racon.pglaucamt.minimap2.Q903_18.porechop.paf.m5000.bold.unicycler.minimap2.Q903_18.porechop.paf.m5000.id</text>
</g>
<!-- n25&#45;&gt;n24 -->
<g id="edge70" class="edge">
<title>n25&#45;&gt;n24</title>
<path fill="none" stroke="black" d="M1714,-1367.7C1714,-1359.98 1714,-1350.71 1714,-1342.11"/>
<polygon fill="black" stroke="black" points="1717.5,-1342.1 1714,-1332.1 1710.5,-1342.1 1717.5,-1342.1"/>
</g>
<!-- n28 -->
<g id="node18" class="node">
<title>n28</title>
<ellipse fill="none" stroke="red" cx="2036" cy="-1098" rx="594.78" ry="18"/>
<text text-anchor="middle" x="2036" y="-1093.8" font-family="Times,serif" font-size="14.00">Q903_18.porechop.minimap2.c3.miniasm.racon.pglaucamt.minimap2.Q903_18.porechop.paf.m5000.bold.unicycler.minimap2.Q903_18.porechop.paf.m5000.flye.fa</text>
</g>
<!-- n27 -->
<g id="node20" class="node">
<title>n27</title>
<ellipse fill="none" stroke="red" cx="1962" cy="-1026" rx="668.66" ry="18"/>
<text text-anchor="middle" x="1962" y="-1021.8" font-family="Times,serif" font-size="14.00">Q903_18.porechop.minimap2.c3.miniasm.racon.pglaucamt.minimap2.Q903_18.porechop.paf.m5000.bold.unicycler.minimap2.Q903_18.porechop.paf.m5000.flye.minimap2.long.sam.gz</text>
</g>
<!-- n28&#45;&gt;n27 -->
<g id="edge37" class="edge">
<title>n28&#45;&gt;n27</title>
<path fill="none" stroke="black" d="M2017.71,-1079.7C2008.57,-1071.05 1997.36,-1060.45 1987.4,-1051.03"/>
<polygon fill="black" stroke="black" points="1989.75,-1048.43 1980.08,-1044.1 1984.94,-1053.52 1989.75,-1048.43"/>
</g>
<!-- n22 -->
<g id="node33" class="node">
<title>n22</title>
<ellipse fill="none" stroke="red" cx="2670" cy="-954" rx="616.48" ry="18"/>
<text text-anchor="middle" x="2670" y="-949.8" font-family="Times,serif" font-size="14.00">Q903_18.porechop.minimap2.c3.miniasm.racon.pglaucamt.minimap2.Q903_18.porechop.paf.m5000.bold.unicycler.minimap2.Q903_18.porechop.paf.m5000.flye.racon.fa</text>
</g>
<!-- n28&#45;&gt;n22 -->
<g id="edge62" class="edge">
<title>n28&#45;&gt;n22</title>
<path fill="none" stroke="black" d="M2368.97,-1083.07C2496.21,-1074.87 2616.63,-1062.39 2640,-1044 2658.66,-1029.32 2665.8,-1002.54 2668.49,-982.18"/>
<polygon fill="black" stroke="black" points="2671.97,-982.53 2669.52,-972.22 2665.01,-981.8 2671.97,-982.53"/>
</g>
<!-- n30 -->
<g id="node19" class="node">
<title>n30</title>
<ellipse fill="none" stroke="red" cx="3324" cy="-1026" rx="599.12" ry="18"/>
<text text-anchor="middle" x="3324" y="-1021.8" font-family="Times,serif" font-size="14.00">Q903_18.porechop.minimap2.c3.miniasm.racon.pglaucamt.minimap2.Q903_18.porechop.paf.m5000.bold.unicycler.minimap2.Q903_18.porechop.paf.m5000.flye.gfa</text>
</g>
<!-- n21 -->
<g id="node34" class="node">
<title>n21</title>
<ellipse fill="none" stroke="red" cx="3324" cy="-882" rx="620.82" ry="18"/>
<text text-anchor="middle" x="3324" y="-877.8" font-family="Times,serif" font-size="14.00">Q903_18.porechop.minimap2.c3.miniasm.racon.pglaucamt.minimap2.Q903_18.porechop.paf.m5000.bold.unicycler.minimap2.Q903_18.porechop.paf.m5000.flye.racon.gfa</text>
</g>
<!-- n30&#45;&gt;n21 -->
<g id="edge65" class="edge">
<title>n30&#45;&gt;n21</title>
<path fill="none" stroke="black" d="M3324,-1007.87C3324,-983.67 3324,-939.21 3324,-910.39"/>
<polygon fill="black" stroke="black" points="3327.5,-910.19 3324,-900.19 3320.5,-910.19 3327.5,-910.19"/>
</g>
<!-- n27&#45;&gt;n22 -->
<g id="edge63" class="edge">
<title>n27&#45;&gt;n22</title>
<path fill="none" stroke="black" d="M2128.44,-1008.54C2238.55,-997.66 2382.7,-983.41 2494.6,-972.34"/>
<polygon fill="black" stroke="black" points="2495.03,-975.82 2504.64,-971.35 2494.34,-968.85 2495.03,-975.82"/>
</g>
<!-- n36 -->
<g id="node21" class="node">
<title>n36</title>
<ellipse fill="none" stroke="red" cx="4472" cy="-738" rx="720.71" ry="18"/>
<text text-anchor="middle" x="4472" y="-733.8" font-family="Times,serif" font-size="14.00">Q903_18.porechop.minimap2.c3.miniasm.racon.pglaucamt.minimap2.Q903_18.porechop.paf.m5000.bold.unicycler.minimap2.Q903_18.porechop.paf.m5000.flye.racon.al5ki90.pglaucamt.compact.gfa</text>
</g>
<!-- n35 -->
<g id="node28" class="node">
<title>n35</title>
<ellipse fill="none" stroke="red" cx="4755" cy="-666" rx="756.44" ry="18"/>
<text text-anchor="middle" x="4755" y="-661.8" font-family="Times,serif" font-size="14.00">Q903_18.porechop.minimap2.c3.miniasm.racon.pglaucamt.minimap2.Q903_18.porechop.paf.m5000.bold.unicycler.minimap2.Q903_18.porechop.paf.m5000.flye.racon.al5ki90.pglaucamt.compact.renumber.gfa</text>
</g>
<!-- n36&#45;&gt;n35 -->
<g id="edge50" class="edge">
<title>n36&#45;&gt;n35</title>
<path fill="none" stroke="black" d="M4540.51,-720.05C4581.48,-709.92 4633.7,-697 4676.36,-686.45"/>
<polygon fill="black" stroke="black" points="4677.28,-689.83 4686.14,-684.03 4675.6,-683.04 4677.28,-689.83"/>
</g>
<!-- n39&#45;&gt;n38 -->
<g id="edge47" class="edge">
<title>n39&#45;&gt;n38</title>
<path fill="none" stroke="black" d="M1596.26,-432.05C1549.99,-421.84 1490.91,-408.79 1442.92,-398.19"/>
<polygon fill="black" stroke="black" points="1443.37,-394.71 1432.85,-395.97 1441.86,-401.54 1443.37,-394.71"/>
</g>
<!-- n37&#45;&gt;n33 -->
<g id="edge57" class="edge">
<title>n37&#45;&gt;n33</title>
<path fill="none" stroke="black" d="M2952.85,-287.88C2975.78,-278.26 3004.58,-266.19 3028.87,-256.01"/>
<polygon fill="black" stroke="black" points="3030.41,-259.16 3038.28,-252.07 3027.7,-252.71 3030.41,-259.16"/>
</g>
<!-- n44 -->
<g id="node24" class="node">
<title>n44</title>
<ellipse fill="none" stroke="red" cx="1059" cy="-306" rx="917.21" ry="18"/>
<text text-anchor="middle" x="1059" y="-301.8" font-family="Times,serif" font-size="14.00">Q903_18.porechop.minimap2.c3.miniasm.racon.pglaucamt.minimap2.Q903_18.porechop.paf.m5000.bold.unicycler.minimap2.Q903_18.porechop.paf.m5000.flye.racon.al5ki90.pglaucamt.compact.renumber.HYN5VCCXX_4.trimadap.bx.sortn.bam.2.fq.gz</text>
</g>
<!-- n44&#45;&gt;n33 -->
<g id="edge58" class="edge">
<title>n44&#45;&gt;n33</title>
<path fill="none" stroke="black" d="M1489.24,-290.09C1831.41,-278.23 2307.8,-261.72 2649.71,-249.88"/>
<polygon fill="black" stroke="black" points="2649.91,-253.37 2659.79,-249.53 2649.67,-246.38 2649.91,-253.37"/>
</g>
<!-- n38&#45;&gt;n37 -->
<g id="edge44" class="edge">
<title>n38&#45;&gt;n37</title>
<path fill="none" stroke="black" d="M1703.74,-361.36C1956.78,-349.97 2298.38,-334.6 2553.81,-323.11"/>
<polygon fill="black" stroke="black" points="2554.17,-326.6 2564,-322.66 2553.85,-319.61 2554.17,-326.6"/>
</g>
<!-- n38&#45;&gt;n44 -->
<g id="edge45" class="edge">
<title>n38&#45;&gt;n44</title>
<path fill="none" stroke="black" d="M1284.1,-360.05C1240.93,-349.88 1185.86,-336.9 1141,-326.33"/>
<polygon fill="black" stroke="black" points="1141.54,-322.86 1131,-323.97 1139.94,-329.67 1141.54,-322.86"/>
</g>
<!-- n34 -->
<g id="node26" class="node">
<title>n34</title>
<ellipse fill="none" stroke="red" cx="3153" cy="-594" rx="752.09" ry="18"/>
<text text-anchor="middle" x="3153" y="-589.8" font-family="Times,serif" font-size="14.00">Q903_18.porechop.minimap2.c3.miniasm.racon.pglaucamt.minimap2.Q903_18.porechop.paf.m5000.bold.unicycler.minimap2.Q903_18.porechop.paf.m5000.flye.racon.al5ki90.pglaucamt.compact.renumber.fa</text>
</g>
<!-- n40 -->
<g id="node27" class="node">
<title>n40</title>
<ellipse fill="none" stroke="red" cx="3061" cy="-522" rx="767.55" ry="18"/>
<text text-anchor="middle" x="3061" y="-517.8" font-family="Times,serif" font-size="14.00">Q903_18.porechop.minimap2.c3.miniasm.racon.pglaucamt.minimap2.Q903_18.porechop.paf.m5000.bold.unicycler.minimap2.Q903_18.porechop.paf.m5000.flye.racon.al5ki90.pglaucamt.compact.renumber.fa.bwt</text>
</g>
<!-- n34&#45;&gt;n40 -->
<g id="edge49" class="edge">
<title>n34&#45;&gt;n40</title>
<path fill="none" stroke="black" d="M3130.26,-575.7C3118.56,-566.8 3104.14,-555.82 3091.49,-546.2"/>
<polygon fill="black" stroke="black" points="3093.56,-543.37 3083.48,-540.1 3089.32,-548.94 3093.56,-543.37"/>
</g>
<!-- n34&#45;&gt;n33 -->
<g id="edge59" class="edge">
<title>n34&#45;&gt;n33</title>
<path fill="none" stroke="black" d="M3608.43,-579.67C3736.36,-571.88 3847.36,-559.53 3871,-540 3902.58,-513.9 3895,-491.97 3895,-451 3895,-451 3895,-451 3895,-377 3895,-336.03 3902.67,-313.99 3871,-288 3847.3,-268.56 3744.43,-256.23 3620.27,-248.42"/>
<polygon fill="black" stroke="black" points="3620.33,-244.91 3610.13,-247.79 3619.9,-251.9 3620.33,-244.91"/>
</g>
<!-- n40&#45;&gt;n39 -->
<g id="edge42" class="edge">
<title>n40&#45;&gt;n39</title>
<path fill="none" stroke="black" d="M2753.39,-505.49C2529.03,-494.17 2225.59,-478.87 1997.41,-467.36"/>
<polygon fill="black" stroke="black" points="1997.44,-463.86 1987.28,-466.85 1997.09,-470.85 1997.44,-463.86"/>
</g>
<!-- n35&#45;&gt;n34 -->
<g id="edge48" class="edge">
<title>n35&#45;&gt;n34</title>
<path fill="none" stroke="black" d="M4410.84,-649.96C4144.17,-638.31 3776.01,-622.22 3506.91,-610.46"/>
<polygon fill="black" stroke="black" points="3506.72,-606.95 3496.58,-610.01 3506.42,-613.95 3506.72,-606.95"/>
</g>
<!-- n35&#45;&gt;n31 -->
<g id="edge54" class="edge">
<title>n35&#45;&gt;n31</title>
<path fill="none" stroke="black" d="M4659.43,-648.12C4548.91,-625.83 4382,-582.33 4382,-523 4382,-523 4382,-523 4382,-233 4382,-171.74 4026.55,-129.87 3780.59,-108.23"/>
<polygon fill="black" stroke="black" points="3780.69,-104.73 3770.42,-107.34 3780.08,-111.7 3780.69,-104.73"/>
</g>
<!-- n32&#45;&gt;n31 -->
<g id="edge55" class="edge">
<title>n32&#45;&gt;n31</title>
<path fill="none" stroke="black" d="M3232.4,-144.1C3294.96,-133.67 3375.26,-120.29 3439.59,-109.57"/>
<polygon fill="black" stroke="black" points="3440.49,-112.97 3449.78,-107.87 3439.34,-106.06 3440.49,-112.97"/>
</g>
<!-- n31&#45;&gt;n2 -->
<g id="edge85" class="edge">
<title>n31&#45;&gt;n2</title>
<path fill="none" stroke="black" d="M2973.03,-77.29C2070.55,-59.01 401.62,-25.21 132.17,-19.75"/>
<polygon fill="black" stroke="black" points="132.19,-16.25 122.12,-19.55 132.05,-23.25 132.19,-16.25"/>
</g>
<!-- n33&#45;&gt;n32 -->
<g id="edge52" class="edge">
<title>n33&#45;&gt;n32</title>
<path fill="none" stroke="black" d="M3091.85,-215.7C3098.03,-207.39 3105.54,-197.28 3112.32,-188.14"/>
<polygon fill="black" stroke="black" points="3115.14,-190.22 3118.29,-180.1 3109.52,-186.04 3115.14,-190.22"/>
</g>
<!-- n20 -->
<g id="node32" class="node">
<title>n20</title>
<ellipse fill="none" stroke="red" cx="4190" cy="-810" rx="688.88" ry="18"/>
<text text-anchor="middle" x="4190" y="-805.8" font-family="Times,serif" font-size="14.00">Q903_18.porechop.minimap2.c3.miniasm.racon.pglaucamt.minimap2.Q903_18.porechop.paf.m5000.bold.unicycler.minimap2.Q903_18.porechop.paf.m5000.flye.racon.al5ki90.pglaucamt.gfa</text>
</g>
<!-- n20&#45;&gt;n36 -->
<g id="edge39" class="edge">
<title>n20&#45;&gt;n36</title>
<path fill="none" stroke="black" d="M4258.26,-792.05C4299.1,-781.92 4351.13,-769 4393.64,-758.45"/>
<polygon fill="black" stroke="black" points="4394.52,-761.84 4403.39,-756.03 4392.84,-755.04 4394.52,-761.84"/>
</g>
<!-- n20&#45;&gt;n2 -->
<g id="edge86" class="edge">
<title>n20&#45;&gt;n2</title>
<path fill="none" stroke="black" d="M4749.89,-799.5C5120.65,-785.42 5539,-750.93 5539,-667 5539,-667 5539,-667 5539,-161 5539,-17.07 610.43,-18.48 132.2,-18.95"/>
<polygon fill="black" stroke="black" points="132.03,-15.45 122.04,-18.96 132.04,-22.45 132.03,-15.45"/>
</g>
<!-- n22&#45;&gt;n21 -->
<g id="edge66" class="edge">
<title>n22&#45;&gt;n21</title>
<path fill="none" stroke="black" d="M2823.75,-936.54C2924.79,-925.73 3056.86,-911.59 3159.92,-900.56"/>
<polygon fill="black" stroke="black" points="3160.55,-904.01 3170.12,-899.47 3159.8,-897.05 3160.55,-904.01"/>
</g>
<!-- n21&#45;&gt;n20 -->
<g id="edge60" class="edge">
<title>n21&#45;&gt;n20</title>
<path fill="none" stroke="black" d="M3522.68,-864.94C3659.09,-853.91 3839.89,-839.3 3978.89,-828.06"/>
<polygon fill="black" stroke="black" points="3979.56,-831.52 3989.25,-827.23 3979,-824.54 3979.56,-831.52"/>
</g>
<!-- n29 -->
<g id="node35" class="node">
<title>n29</title>
<ellipse fill="none" stroke="red" cx="2050" cy="-1170" rx="608.79" ry="18"/>
<text text-anchor="middle" x="2050" y="-1165.8" font-family="Times,serif" font-size="14.00">Q903_18.porechop.minimap2.c3.miniasm.racon.pglaucamt.minimap2.Q903_18.porechop.paf.m5000.bold.unicycler.minimap2.Q903_18.porechop.paf.m5000.flye.stamp</text>
</g>
<!-- n29&#45;&gt;n28 -->
<g id="edge35" class="edge">
<title>n29&#45;&gt;n28</title>
<path fill="none" stroke="black" d="M2046.54,-1151.7C2045,-1143.98 2043.14,-1134.71 2041.42,-1126.11"/>
<polygon fill="black" stroke="black" points="2044.81,-1125.22 2039.42,-1116.1 2037.95,-1126.6 2044.81,-1125.22"/>
</g>
<!-- n29&#45;&gt;n30 -->
<g id="edge36" class="edge">
<title>n29&#45;&gt;n30</title>
<path fill="none" stroke="black" d="M2250.57,-1152.98C2364.82,-1143.35 2510.55,-1130.23 2640,-1116 2834.66,-1094.6 3059.74,-1064.22 3196.94,-1045.07"/>
<polygon fill="black" stroke="black" points="3197.65,-1048.51 3207.07,-1043.65 3196.68,-1041.57 3197.65,-1048.51"/>
</g>
<!-- n23&#45;&gt;n27 -->
<g id="edge38" class="edge">
<title>n23&#45;&gt;n27</title>
<path fill="none" stroke="black" d="M1530.48,-1224.87C1485.63,-1216.99 1446.35,-1205.3 1432,-1188 1401.35,-1151.06 1399.79,-1115.59 1432,-1080 1447.71,-1062.64 1533.93,-1050.72 1632.42,-1042.66"/>
<polygon fill="black" stroke="black" points="1632.92,-1046.13 1642.61,-1041.84 1632.36,-1039.15 1632.92,-1046.13"/>
</g>
<!-- n23&#45;&gt;n22 -->
<g id="edge64" class="edge">
<title>n23&#45;&gt;n22</title>
<path fill="none" stroke="black" d="M2150.22,-1229.86C2392.45,-1221.47 2648.97,-1207.94 2668,-1188 2721.32,-1132.12 2696.22,-1030 2680.01,-981.68"/>
<polygon fill="black" stroke="black" points="2683.32,-980.52 2676.72,-972.23 2676.71,-982.82 2683.32,-980.52"/>
</g>
<!-- n23&#45;&gt;n29 -->
<g id="edge67" class="edge">
<title>n23&#45;&gt;n29</title>
<path fill="none" stroke="black" d="M1794.91,-1224.14C1844.33,-1213.85 1907.66,-1200.65 1958.85,-1189.99"/>
<polygon fill="black" stroke="black" points="1959.85,-1193.36 1968.92,-1187.89 1958.42,-1186.5 1959.85,-1193.36"/>
</g>
<!-- n24&#45;&gt;n23 -->
<g id="edge69" class="edge">
<title>n24&#45;&gt;n23</title>
<path fill="none" stroke="black" d="M1714,-1295.7C1714,-1287.98 1714,-1278.71 1714,-1270.11"/>
<polygon fill="black" stroke="black" points="1717.5,-1270.1 1714,-1260.1 1710.5,-1270.1 1717.5,-1270.1"/>
</g>
<!-- n7&#45;&gt;n26 -->
<g id="edge29" class="edge">
<title>n7&#45;&gt;n26</title>
<path fill="none" stroke="black" d="M1230.62,-1512.37C1289.8,-1501.85 1366.34,-1488.25 1427.35,-1477.41"/>
<polygon fill="black" stroke="black" points="1428.16,-1480.83 1437.39,-1475.63 1426.93,-1473.93 1428.16,-1480.83"/>
</g>
<!-- n7&#45;&gt;n6 -->
<g id="edge31" class="edge">
<title>n7&#45;&gt;n6</title>
<path fill="none" stroke="black" d="M991.49,-1512.98C891.33,-1501.96 758.43,-1487.33 656.24,-1476.09"/>
<polygon fill="black" stroke="black" points="656.46,-1472.59 646.14,-1474.97 655.69,-1479.55 656.46,-1472.59"/>
</g>
<!-- n8&#45;&gt;n7 -->
<g id="edge72" class="edge">
<title>n8&#45;&gt;n7</title>
<path fill="none" stroke="black" d="M1137,-1583.7C1137,-1575.98 1137,-1566.71 1137,-1558.11"/>
<polygon fill="black" stroke="black" points="1140.5,-1558.1 1137,-1548.1 1133.5,-1558.1 1140.5,-1558.1"/>
</g>
<!-- n9&#45;&gt;n8 -->
<g id="edge76" class="edge">
<title>n9&#45;&gt;n8</title>
<path fill="none" stroke="black" d="M1131.73,-1655.7C1132.5,-1647.98 1133.43,-1638.71 1134.29,-1630.11"/>
<polygon fill="black" stroke="black" points="1137.78,-1630.4 1135.29,-1620.1 1130.81,-1629.71 1137.78,-1630.4"/>
</g>
<!-- n19&#45;&gt;n18 -->
<g id="edge9" class="edge">
<title>n19&#45;&gt;n18</title>
<path fill="none" stroke="black" d="M1197.01,-2304.41C1178.56,-2294.85 1155.18,-2282.72 1135.35,-2272.44"/>
<polygon fill="black" stroke="black" points="1136.72,-2269.21 1126.23,-2267.71 1133.5,-2275.42 1136.72,-2269.21"/>
</g>
<!-- n4 -->
<g id="node43" class="node">
<title>n4</title>
<ellipse fill="none" stroke="green" cx="659" cy="-1962" rx="56.04" ry="18"/>
<text text-anchor="middle" x="659" y="-1957.8" font-family="Times,serif" font-size="14.00">pglaucamt.fa</text>
</g>
<!-- n4&#45;&gt;n11 -->
<g id="edge21" class="edge">
<title>n4&#45;&gt;n11</title>
<path fill="none" stroke="black" d="M692.25,-1947.51C718.14,-1936.93 754.95,-1921.75 787,-1908 823.2,-1892.46 830.55,-1884.21 868,-1872 913.95,-1857.02 966.13,-1845.08 1010.57,-1836.37"/>
<polygon fill="black" stroke="black" points="1011.36,-1839.78 1020.52,-1834.44 1010.03,-1832.9 1011.36,-1839.78"/>
</g>
<!-- n4&#45;&gt;n12 -->
<g id="edge24" class="edge">
<title>n4&#45;&gt;n12</title>
<path fill="none" stroke="black" d="M708.19,-1953.22C726.63,-1950.32 747.78,-1946.99 767,-1944 845.09,-1931.84 933.17,-1918.27 1000.66,-1907.91"/>
<polygon fill="black" stroke="black" points="1001.53,-1911.31 1010.89,-1906.34 1000.47,-1904.39 1001.53,-1911.31"/>
</g>
<!-- n4&#45;&gt;n10 -->
<g id="edge28" class="edge">
<title>n4&#45;&gt;n10</title>
<path fill="none" stroke="black" d="M692.41,-1947.49C711.05,-1938.57 733.55,-1925.32 749,-1908 783.97,-1868.8 755.46,-1832.15 797,-1800 819.09,-1782.9 872.22,-1771.09 928.92,-1763.03"/>
<polygon fill="black" stroke="black" points="929.73,-1766.45 939.16,-1761.62 928.78,-1759.52 929.73,-1766.45"/>
</g>
<!-- n4&#45;&gt;n6 -->
<g id="edge32" class="edge">
<title>n4&#45;&gt;n6</title>
<path fill="none" stroke="black" d="M638.89,-1945.01C627.99,-1935.36 615.13,-1922.21 607,-1908 586.66,-1872.44 583,-1859.97 583,-1819 583,-1819 583,-1819 583,-1601 583,-1554.88 550.16,-1510.26 526.04,-1483.72"/>
<polygon fill="black" stroke="black" points="528.59,-1481.31 519.2,-1476.4 523.48,-1486.1 528.59,-1481.31"/>
</g>
<!-- n4&#45;&gt;n20 -->
<g id="edge61" class="edge">
<title>n4&#45;&gt;n20</title>
<path fill="none" stroke="black" d="M651.31,-1943.91C640.21,-1917.62 621,-1865.45 621,-1819 621,-1819 621,-1819 621,-1673 621,-1596.32 622.89,-1559.61 683,-1512 775.14,-1439.02 858.88,-1555.99 945,-1476 974.64,-1448.47 964,-1427.45 964,-1387 964,-1387 964,-1387 964,-953 964,-886.78 2722.23,-840.94 3642.65,-821.48"/>
<polygon fill="black" stroke="black" points="3642.84,-824.98 3652.76,-821.27 3642.69,-817.98 3642.84,-824.98"/>
</g>
<!-- n4&#45;&gt;n7 -->
<g id="edge73" class="edge">
<title>n4&#45;&gt;n7</title>
<path fill="none" stroke="black" d="M659,-1943.95C659,-1917.29 659,-1864.11 659,-1819 659,-1819 659,-1819 659,-1673 659,-1619.81 691.96,-1608.82 739,-1584 771.08,-1567.07 842.86,-1555.15 916.76,-1546.96"/>
<polygon fill="black" stroke="black" points="917.16,-1550.44 926.72,-1545.88 916.4,-1543.48 917.16,-1550.44"/>
</g>
<!-- n4&#45;&gt;n8 -->
<g id="edge77" class="edge">
<title>n4&#45;&gt;n8</title>
<path fill="none" stroke="black" d="M666.69,-1943.91C677.79,-1917.62 697,-1865.45 697,-1819 697,-1819 697,-1819 697,-1745 697,-1700.47 706.6,-1681.64 743,-1656 769.26,-1637.5 828.53,-1625.44 893.32,-1617.59"/>
<polygon fill="black" stroke="black" points="893.82,-1621.06 903.34,-1616.42 893,-1614.11 893.82,-1621.06"/>
</g>
<!-- n4&#45;&gt;n9 -->
<g id="edge80" class="edge">
<title>n4&#45;&gt;n9</title>
<path fill="none" stroke="black" d="M679.27,-1945.1C690.22,-1935.48 703.08,-1922.33 711,-1908 750.81,-1836.02 693.16,-1783.35 754,-1728 774.64,-1709.22 822.76,-1697.07 877.92,-1689.21"/>
<polygon fill="black" stroke="black" points="878.49,-1692.66 887.93,-1687.84 877.54,-1685.73 878.49,-1692.66"/>
</g>
<!-- n4&#45;&gt;n2 -->
<g id="edge87" class="edge">
<title>n4&#45;&gt;n2</title>
<path fill="none" stroke="black" d="M604,-1958.35C465.62,-1950.18 114,-1919.53 114,-1819 114,-1819 114,-1819 114,-1673 114,-1572.07 38,-1559.93 38,-1459 38,-1459 38,-1459 38,-161 38,-117.09 61.77,-70.67 78.61,-43.3"/>
<polygon fill="black" stroke="black" points="81.61,-45.1 84.01,-34.78 75.7,-41.35 81.61,-45.1"/>
</g>
</g>
</svg>
