<?xml version="1.0" encoding="UTF-8" standalone="no"?>
<!DOCTYPE svg PUBLIC "-//W3C//DTD SVG 1.1//EN"
 "http://www.w3.org/Graphics/SVG/1.1/DTD/svg11.dtd">
<!-- Generated by graphviz version 2.42.3 (20191010.1750)
 -->
<!-- Title: %3 Pages: 1 -->
<svg width="669pt" height="1038pt"
 viewBox="0.00 0.00 669.24 1038.00" xmlns="http://www.w3.org/2000/svg" xmlns:xlink="http://www.w3.org/1999/xlink">
<g id="graph0" class="graph" transform="scale(1 1) rotate(0) translate(4 1034)">
<title>%3</title>
<polygon fill="white" stroke="transparent" points="-4,4 -4,-1034 665.24,-1034 665.24,4 -4,4"/>
<g id="clust1" class="cluster">
<title>cluster_miniasm</title>
<polygon fill="none" stroke="black" stroke-dasharray="1,5" points="127.24,-646 127.24,-1022 653.24,-1022 653.24,-646 127.24,-646"/>
<text text-anchor="middle" x="595.02" y="-1006.8" font-family="Times,serif" font-size="14.00">Miniasm + Racon</text>
</g>
<g id="clust2" class="cluster">
<title>cluster_unicycler</title>
<polygon fill="none" stroke="black" stroke-dasharray="1,5" points="252.24,-478 252.24,-638 484.24,-638 484.24,-478 252.24,-478"/>
<text text-anchor="middle" x="448.64" y="-622.8" font-family="Times,serif" font-size="14.00">Unicycler</text>
</g>
<g id="clust3" class="cluster">
<title>cluster_flye</title>
<polygon fill="none" stroke="black" stroke-dasharray="1,5" points="251.24,-136 251.24,-470 491.24,-470 491.24,-136 251.24,-136"/>
<text text-anchor="middle" x="445.46" y="-454.8" font-family="Times,serif" font-size="14.00">Flye + Racon</text>
</g>
<g id="clust4" class="cluster">
<title>cluster_unicycler_polish</title>
<polygon fill="none" stroke="black" stroke-dasharray="1,5" points="11.24,-64 11.24,-382 243.24,-382 243.24,-64 11.24,-64"/>
<text text-anchor="middle" x="188.38" y="-366.8" font-family="Times,serif" font-size="14.00">Unicycler Polish</text>
</g>
<!-- pglauca -->
<g id="node1" class="node">
<title>pglauca</title>
<path fill="none" stroke="black" d="M632.86,-776C632.86,-776 381.61,-776 381.61,-776 375.61,-776 369.61,-770 369.61,-764 369.61,-764 369.61,-752 369.61,-752 369.61,-746 375.61,-740 381.61,-740 381.61,-740 632.86,-740 632.86,-740 638.86,-740 644.86,-746 644.86,-752 644.86,-752 644.86,-764 644.86,-764 644.86,-770 638.86,-776 632.86,-776"/>
<text text-anchor="middle" x="507.24" y="-753.8" font-family="Times,serif" font-size="14.00">White spruce mitochondrial genome (FASTA)</text>
</g>
<!-- miniasm_racon_pglauca -->
<g id="node6" class="node">
<title>miniasm_racon_pglauca</title>
<polygon fill="none" stroke="black" points="478.9,-704 255.57,-704 255.57,-654 478.9,-654 478.9,-704"/>
<text text-anchor="middle" x="367.24" y="-688.8" font-family="Times,serif" font-size="14.00">BLASTN run by Bandage(GFA)</text>
<text text-anchor="middle" x="367.24" y="-674.8" font-family="Times,serif" font-size="14.00">Contigs with alignment score ≥ 5000</text>
<text text-anchor="middle" x="367.24" y="-660.8" font-family="Times,serif" font-size="14.00">to the white spruce mtDNA</text>
</g>
<!-- pglauca&#45;&gt;miniasm_racon_pglauca -->
<g id="edge5" class="edge">
<title>pglauca&#45;&gt;miniasm_racon_pglauca</title>
<path fill="none" stroke="black" d="M476.17,-739.91C459.61,-730.81 438.81,-719.36 419.82,-708.92"/>
<polygon fill="black" stroke="black" points="421.41,-705.8 410.96,-704.05 418.04,-711.94 421.41,-705.8"/>
</g>
<!-- flye_racon_pglauca -->
<g id="node12" class="node">
<title>flye_racon_pglauca</title>
<polygon fill="none" stroke="black" points="482.9,-208 259.57,-208 259.57,-144 482.9,-144 482.9,-208"/>
<text text-anchor="middle" x="371.24" y="-192.8" font-family="Times,serif" font-size="14.00">BLASTN run by Bandage (GFA)</text>
<text text-anchor="middle" x="371.24" y="-178.8" font-family="Times,serif" font-size="14.00">Contigs with alignment score ≥ 5000</text>
<text text-anchor="middle" x="371.24" y="-164.8" font-family="Times,serif" font-size="14.00">and percent identity ≥ 90%</text>
<text text-anchor="middle" x="371.24" y="-150.8" font-family="Times,serif" font-size="14.00">to the white spruce mtDNA</text>
</g>
<!-- pglauca&#45;&gt;flye_racon_pglauca -->
<g id="edge12" class="edge">
<title>pglauca&#45;&gt;flye_racon_pglauca</title>
<path fill="none" stroke="black" d="M507.24,-739.81C507.24,-708.72 507.24,-641.07 507.24,-584 507.24,-584 507.24,-584 507.24,-333 507.24,-292.36 510.43,-276.66 486.24,-244 477.52,-232.23 466.07,-222.18 453.78,-213.73"/>
<polygon fill="black" stroke="black" points="455.45,-210.64 445.16,-208.12 451.63,-216.51 455.45,-210.64"/>
</g>
<!-- reads -->
<g id="node2" class="node">
<title>reads</title>
<path fill="none" stroke="black" d="M339.24,-992C339.24,-992 147.24,-992 147.24,-992 141.24,-992 135.24,-986 135.24,-980 135.24,-980 135.24,-968 135.24,-968 135.24,-962 141.24,-956 147.24,-956 147.24,-956 339.24,-956 339.24,-956 345.24,-956 351.24,-962 351.24,-968 351.24,-968 351.24,-980 351.24,-980 351.24,-986 345.24,-992 339.24,-992"/>
<text text-anchor="middle" x="243.24" y="-969.8" font-family="Times,serif" font-size="14.00">Nanopore sequencing (FASTQ)</text>
</g>
<!-- porechop -->
<g id="node3" class="node">
<title>porechop</title>
<polygon fill="none" stroke="black" points="351.24,-920 135.24,-920 135.24,-884 351.24,-884 351.24,-920"/>
<text text-anchor="middle" x="243.24" y="-897.8" font-family="Times,serif" font-size="14.00">Porechop (FASTQ)</text>
</g>
<!-- reads&#45;&gt;porechop -->
<g id="edge1" class="edge">
<title>reads&#45;&gt;porechop</title>
<path fill="none" stroke="black" d="M243.24,-955.7C243.24,-947.98 243.24,-938.71 243.24,-930.11"/>
<polygon fill="black" stroke="black" points="246.74,-930.1 243.24,-920.1 239.74,-930.1 246.74,-930.1"/>
</g>
<!-- miniasm -->
<g id="node4" class="node">
<title>miniasm</title>
<polygon fill="none" stroke="black" points="351.24,-848 135.24,-848 135.24,-812 351.24,-812 351.24,-848"/>
<text text-anchor="middle" x="243.24" y="-825.8" font-family="Times,serif" font-size="14.00">Miniasm (GFA)</text>
</g>
<!-- porechop&#45;&gt;miniasm -->
<g id="edge2" class="edge">
<title>porechop&#45;&gt;miniasm</title>
<path fill="none" stroke="black" d="M243.24,-883.7C243.24,-875.98 243.24,-866.71 243.24,-858.11"/>
<polygon fill="black" stroke="black" points="246.74,-858.1 243.24,-848.1 239.74,-858.1 246.74,-858.1"/>
</g>
<!-- miniasm_racon -->
<g id="node5" class="node">
<title>miniasm_racon</title>
<polygon fill="none" stroke="black" points="351.24,-776 135.24,-776 135.24,-740 351.24,-740 351.24,-776"/>
<text text-anchor="middle" x="243.24" y="-753.8" font-family="Times,serif" font-size="14.00">Racon (FASTA)</text>
</g>
<!-- miniasm&#45;&gt;miniasm_racon -->
<g id="edge3" class="edge">
<title>miniasm&#45;&gt;miniasm_racon</title>
<path fill="none" stroke="black" d="M243.24,-811.7C243.24,-803.98 243.24,-794.71 243.24,-786.11"/>
<polygon fill="black" stroke="black" points="246.74,-786.1 243.24,-776.1 239.74,-786.1 246.74,-786.1"/>
</g>
<!-- miniasm_racon&#45;&gt;miniasm_racon_pglauca -->
<g id="edge4" class="edge">
<title>miniasm_racon&#45;&gt;miniasm_racon_pglauca</title>
<path fill="none" stroke="black" d="M270.76,-739.91C285.22,-730.93 303.35,-719.67 319.97,-709.35"/>
<polygon fill="black" stroke="black" points="321.86,-712.3 328.51,-704.05 318.16,-706.35 321.86,-712.3"/>
</g>
<!-- miniasm_racon_pglauca_reads -->
<g id="node7" class="node">
<title>miniasm_racon_pglauca_reads</title>
<polygon fill="none" stroke="black" points="476.24,-608 260.24,-608 260.24,-558 476.24,-558 476.24,-608"/>
<text text-anchor="middle" x="368.24" y="-592.8" font-family="Times,serif" font-size="14.00">Minimap2 (FASTQ)</text>
<text text-anchor="middle" x="368.24" y="-578.8" font-family="Times,serif" font-size="14.00">Reads with alignment score ≥ 5000</text>
<text text-anchor="middle" x="368.24" y="-564.8" font-family="Times,serif" font-size="14.00">to the Miniasm assembly</text>
</g>
<!-- miniasm_racon_pglauca&#45;&gt;miniasm_racon_pglauca_reads -->
<g id="edge6" class="edge">
<title>miniasm_racon_pglauca&#45;&gt;miniasm_racon_pglauca_reads</title>
<path fill="none" stroke="black" d="M367.49,-653.79C367.61,-643.05 367.74,-630.21 367.87,-618.48"/>
<polygon fill="black" stroke="black" points="371.37,-618.16 367.98,-608.13 364.37,-618.09 371.37,-618.16"/>
</g>
<!-- unicycler -->
<g id="node8" class="node">
<title>unicycler</title>
<polygon fill="none" stroke="black" points="476.24,-522 260.24,-522 260.24,-486 476.24,-486 476.24,-522"/>
<text text-anchor="middle" x="368.24" y="-499.8" font-family="Times,serif" font-size="14.00">Unicycler (GFA)</text>
</g>
<!-- miniasm_racon_pglauca_reads&#45;&gt;unicycler -->
<g id="edge7" class="edge">
<title>miniasm_racon_pglauca_reads&#45;&gt;unicycler</title>
<path fill="none" stroke="black" d="M368.24,-557.64C368.24,-549.67 368.24,-540.77 368.24,-532.58"/>
<polygon fill="black" stroke="black" points="371.74,-532.38 368.24,-522.38 364.74,-532.38 371.74,-532.38"/>
</g>
<!-- unicycler_reads -->
<g id="node9" class="node">
<title>unicycler_reads</title>
<polygon fill="none" stroke="black" points="477.24,-440 261.24,-440 261.24,-390 477.24,-390 477.24,-440"/>
<text text-anchor="middle" x="369.24" y="-424.8" font-family="Times,serif" font-size="14.00">Minimap2 (FASTQ)</text>
<text text-anchor="middle" x="369.24" y="-410.8" font-family="Times,serif" font-size="14.00">Reads with alignment score ≥ 5000</text>
<text text-anchor="middle" x="369.24" y="-396.8" font-family="Times,serif" font-size="14.00">to the Unicycler assembly</text>
</g>
<!-- unicycler&#45;&gt;unicycler_reads -->
<g id="edge8" class="edge">
<title>unicycler&#45;&gt;unicycler_reads</title>
<path fill="none" stroke="black" d="M368.43,-485.81C368.55,-475.7 368.7,-462.55 368.84,-450.39"/>
<polygon fill="black" stroke="black" points="372.34,-450.11 368.96,-440.07 365.34,-450.03 372.34,-450.11"/>
</g>
<!-- flye -->
<g id="node10" class="node">
<title>flye</title>
<polygon fill="none" stroke="black" points="477.24,-352 261.24,-352 261.24,-316 477.24,-316 477.24,-352"/>
<text text-anchor="middle" x="369.24" y="-329.8" font-family="Times,serif" font-size="14.00">Flye (GFA)</text>
</g>
<!-- unicycler_reads&#45;&gt;flye -->
<g id="edge9" class="edge">
<title>unicycler_reads&#45;&gt;flye</title>
<path fill="none" stroke="black" d="M369.24,-389.87C369.24,-381.22 369.24,-371.41 369.24,-362.5"/>
<polygon fill="black" stroke="black" points="372.74,-362.22 369.24,-352.22 365.74,-362.22 372.74,-362.22"/>
</g>
<!-- flye_racon -->
<g id="node11" class="node">
<title>flye_racon</title>
<polygon fill="none" stroke="black" points="477.24,-280 261.24,-280 261.24,-244 477.24,-244 477.24,-280"/>
<text text-anchor="middle" x="369.24" y="-257.8" font-family="Times,serif" font-size="14.00">Racon (FASTA)</text>
</g>
<!-- flye&#45;&gt;flye_racon -->
<g id="edge10" class="edge">
<title>flye&#45;&gt;flye_racon</title>
<path fill="none" stroke="black" d="M369.24,-315.7C369.24,-307.98 369.24,-298.71 369.24,-290.11"/>
<polygon fill="black" stroke="black" points="372.74,-290.1 369.24,-280.1 365.74,-290.1 372.74,-290.1"/>
</g>
<!-- flye_racon&#45;&gt;flye_racon_pglauca -->
<g id="edge11" class="edge">
<title>flye_racon&#45;&gt;flye_racon_pglauca</title>
<path fill="none" stroke="black" d="M369.65,-243.6C369.82,-236.27 370.04,-227.41 370.25,-218.57"/>
<polygon fill="black" stroke="black" points="373.75,-218.39 370.49,-208.3 366.75,-218.22 373.75,-218.39"/>
</g>
<!-- unicycler_polish -->
<g id="node16" class="node">
<title>unicycler_polish</title>
<polygon fill="none" stroke="black" points="235.24,-108 19.24,-108 19.24,-72 235.24,-72 235.24,-108"/>
<text text-anchor="middle" x="127.24" y="-85.8" font-family="Times,serif" font-size="14.00">Unicycler Polish (GFA)</text>
</g>
<!-- flye_racon_pglauca&#45;&gt;unicycler_polish -->
<g id="edge15" class="edge">
<title>flye_racon_pglauca&#45;&gt;unicycler_polish</title>
<path fill="none" stroke="black" d="M281.07,-143.96C249.5,-133.09 214.87,-121.17 186.47,-111.39"/>
<polygon fill="black" stroke="black" points="187.29,-107.97 176.7,-108.03 185.02,-114.59 187.29,-107.97"/>
</g>
<!-- linked_reads -->
<g id="node13" class="node">
<title>linked_reads</title>
<path fill="none" stroke="black" d="M223.24,-352C223.24,-352 31.24,-352 31.24,-352 25.24,-352 19.24,-346 19.24,-340 19.24,-340 19.24,-328 19.24,-328 19.24,-322 25.24,-316 31.24,-316 31.24,-316 223.24,-316 223.24,-316 229.24,-316 235.24,-322 235.24,-328 235.24,-328 235.24,-340 235.24,-340 235.24,-346 229.24,-352 223.24,-352"/>
<text text-anchor="middle" x="127.24" y="-329.8" font-family="Times,serif" font-size="14.00">Linked reads (FASTQ)</text>
</g>
<!-- trimadap -->
<g id="node14" class="node">
<title>trimadap</title>
<polygon fill="none" stroke="black" points="235.24,-280 19.24,-280 19.24,-244 235.24,-244 235.24,-280"/>
<text text-anchor="middle" x="127.24" y="-257.8" font-family="Times,serif" font-size="14.00">Trimadap (FASTQ)</text>
</g>
<!-- linked_reads&#45;&gt;trimadap -->
<g id="edge13" class="edge">
<title>linked_reads&#45;&gt;trimadap</title>
<path fill="none" stroke="black" d="M127.24,-315.7C127.24,-307.98 127.24,-298.71 127.24,-290.11"/>
<polygon fill="black" stroke="black" points="130.74,-290.1 127.24,-280.1 123.74,-290.1 130.74,-290.1"/>
</g>
<!-- longranger_basic -->
<g id="node15" class="node">
<title>longranger_basic</title>
<polygon fill="none" stroke="black" points="235.24,-194 19.24,-194 19.24,-158 235.24,-158 235.24,-194"/>
<text text-anchor="middle" x="127.24" y="-171.8" font-family="Times,serif" font-size="14.00">Long Ranger Basic (FASTQ)</text>
</g>
<!-- trimadap&#45;&gt;longranger_basic -->
<g id="edge14" class="edge">
<title>trimadap&#45;&gt;longranger_basic</title>
<path fill="none" stroke="black" d="M127.24,-243.6C127.24,-232.26 127.24,-217.23 127.24,-204.32"/>
<polygon fill="black" stroke="black" points="130.74,-204.1 127.24,-194.1 123.74,-204.1 130.74,-204.1"/>
</g>
<!-- longranger_basic&#45;&gt;unicycler_polish -->
<g id="edge16" class="edge">
<title>longranger_basic&#45;&gt;unicycler_polish</title>
<path fill="none" stroke="black" d="M127.24,-157.6C127.24,-146.26 127.24,-131.23 127.24,-118.32"/>
<polygon fill="black" stroke="black" points="130.74,-118.1 127.24,-108.1 123.74,-118.1 130.74,-118.1"/>
</g>
<!-- assembly -->
<g id="node17" class="node">
<title>assembly</title>
<path fill="none" stroke="black" d="M242.71,-36C242.71,-36 11.76,-36 11.76,-36 5.76,-36 -0.24,-30 -0.24,-24 -0.24,-24 -0.24,-12 -0.24,-12 -0.24,-6 5.76,0 11.76,0 11.76,0 242.71,0 242.71,0 248.71,0 254.71,-6 254.71,-12 254.71,-12 254.71,-24 254.71,-24 254.71,-30 248.71,-36 242.71,-36"/>
<text text-anchor="middle" x="127.24" y="-13.8" font-family="Times,serif" font-size="14.00">Sitka spruce mitochondrial genome (GFA)</text>
</g>
<!-- unicycler_polish&#45;&gt;assembly -->
<g id="edge17" class="edge">
<title>unicycler_polish&#45;&gt;assembly</title>
<path fill="none" stroke="black" d="M127.24,-71.7C127.24,-63.98 127.24,-54.71 127.24,-46.11"/>
<polygon fill="black" stroke="black" points="130.74,-46.1 127.24,-36.1 123.74,-46.1 130.74,-46.1"/>
</g>
</g>
</svg>
